<svg width="64" height="42" viewBox="0 0 64 42" fill="none" xmlns="http://www.w3.org/2000/svg">
<path d="M0.272719 21.016C0.272719 9.2 3.85672 0.352 15.3927 0.352C26.9287 0.352 30.5127 9.2 30.5127 21.016C30.5127 32.944 26.9287 41.848 15.3927 41.848C3.85672 41.848 0.272719 32.944 0.272719 21.016ZM22.7847 21.016C22.7847 14.016 22.0007 7.632 15.3927 7.632C8.78472 7.632 8.00072 14.016 8.00072 21.016C8.00072 28.296 8.78472 34.568 15.3927 34.568C22.0007 34.568 22.7847 28.296 22.7847 21.016ZM36.4198 11.44C36.8118 4.272 42.1878 0.352 50.0278 0.352C58.4278 0.352 62.9078 4.888 62.9078 10.6C62.9078 15.472 59.7158 18.44 56.7478 19.392V19.616C60.8918 20.848 63.6358 23.984 63.6358 29.248C63.6358 35.576 58.9318 40.28 50.3638 40.28C42.2998 40.28 36.1958 36.472 35.8598 28.296H43.4758C43.6438 31.656 45.9958 34.064 50.1958 34.064C54.1158 34.064 56.1318 31.712 56.1318 28.632C56.1318 24.264 53.2198 22.696 47.3958 22.696H45.7718V16.592H47.3958C51.9878 16.592 55.3478 15.36 55.3478 11.496C55.3478 8.472 53.3878 6.68 49.8038 6.68C45.9958 6.68 44.3718 9.032 44.0918 11.44H36.4198Z" fill="#006D0B"/>
</svg>
