<svg width="65" height="42" viewBox="0 0 65 42" fill="none" xmlns="http://www.w3.org/2000/svg">
<path d="M0.956313 21.016C0.956313 9.2 4.54031 0.352 16.0763 0.352C27.6123 0.352 31.1963 9.2 31.1963 21.016C31.1963 32.944 27.6123 41.848 16.0763 41.848C4.54031 41.848 0.956313 32.944 0.956313 21.016ZM23.4683 21.016C23.4683 14.016 22.6843 7.632 16.0763 7.632C9.46831 7.632 8.68431 14.016 8.68431 21.016C8.68431 28.296 9.46831 34.568 16.0763 34.568C22.6843 34.568 23.4683 28.296 23.4683 21.016ZM36.5434 39.44V33.896C45.7834 26.448 55.4714 19.616 55.4714 12.504C55.4714 9.032 53.8474 6.68 49.9834 6.68C46.2314 6.68 44.1594 9.256 44.1034 13.344H36.4874C36.7674 4.44 42.7594 0.352 50.0954 0.352C58.8874 0.352 63.3114 5.28 63.3114 12.056C63.3114 21.016 54.1834 28.072 47.6874 33.28H64.2074V39.44H36.5434Z" fill="#006D0B"/>
</svg>
