<svg width="50" height="42" viewBox="0 0 50 42" fill="none" xmlns="http://www.w3.org/2000/svg">
<path d="M0.889906 21.016C0.889906 9.2 4.47391 0.352 16.0099 0.352C27.5459 0.352 31.1299 9.2 31.1299 21.016C31.1299 32.944 27.5459 41.848 16.0099 41.848C4.47391 41.848 0.889906 32.944 0.889906 21.016ZM23.4019 21.016C23.4019 14.016 22.6179 7.632 16.0099 7.632C9.40191 7.632 8.61791 14.016 8.61791 21.016C8.61791 28.296 9.40191 34.568 16.0099 34.568C22.6179 34.568 23.4019 28.296 23.4019 21.016ZM41.405 40V7.632H35.973V0.687999H49.469V40H41.405Z" fill="#006D0B"/>
</svg>
