<svg width="69" height="42" viewBox="0 0 69 42" fill="none" xmlns="http://www.w3.org/2000/svg">
<path d="M0.522719 21.016C0.522719 9.2 4.10672 0.352 15.6427 0.352C27.1787 0.352 30.7627 9.2 30.7627 21.016C30.7627 32.944 27.1787 41.848 15.6427 41.848C4.10672 41.848 0.522719 32.944 0.522719 21.016ZM23.0347 21.016C23.0347 14.016 22.2507 7.632 15.6427 7.632C9.03472 7.632 8.25072 14.016 8.25072 21.016C8.25072 28.296 9.03472 34.568 15.6427 34.568C22.2507 34.568 23.0347 28.296 23.0347 21.016ZM55.8218 40V32.272H36.2218V26.224L54.5338 0.687999H63.6618V25.608H68.5898V32.272H63.6618V40H55.8218ZM44.8458 25.608H56.3258V8.864L44.8458 25.608Z" fill="#006D0B"/>
</svg>
