<svg width="67" height="42" viewBox="0 0 67 42" fill="none" xmlns="http://www.w3.org/2000/svg">
<path d="M0.0149063 21.016C0.0149063 9.2 3.59891 0.352 15.1349 0.352C26.6709 0.352 30.2549 9.2 30.2549 21.016C30.2549 32.944 26.6709 41.848 15.1349 41.848C3.59891 41.848 0.0149063 32.944 0.0149063 21.016ZM22.5269 21.016C22.5269 14.016 21.7429 7.632 15.1349 7.632C8.52691 7.632 7.74291 14.016 7.74291 21.016C7.74291 28.296 8.52691 34.568 15.1349 34.568C21.7429 34.568 22.5269 28.296 22.5269 21.016ZM38.178 0.687999H63.49V7.296H45.346V16.48C46.858 14.744 49.938 13.344 53.354 13.344C62.874 13.344 66.122 20.232 66.122 26.28C66.122 34.288 61.306 40 52.01 40C43.218 40 38.178 35.296 37.506 28.912H45.122C45.794 31.656 48.09 33.672 51.898 33.672C56.49 33.672 58.562 30.536 58.562 26.392C58.562 21.968 56.266 19.56 51.842 19.56C48.594 19.56 46.522 21.296 45.682 23.704H38.178V0.687999Z" fill="#006D0B"/>
</svg>
