<svg width="20" height="20" viewBox="0 0 20 20" fill="none" xmlns="http://www.w3.org/2000/svg">
<path d="M17.1834 7.04167C16.3084 3.19167 12.95 1.45833 10 1.45833C10 1.45833 10 1.45833 9.99168 1.45833C7.05002 1.45833 3.68335 3.18333 2.80835 7.03333C1.83335 11.3333 4.46669 14.975 6.85002 17.2667C7.73335 18.1167 8.86668 18.5417 10 18.5417C11.1334 18.5417 12.2667 18.1167 13.1417 17.2667C15.525 14.975 18.1584 11.3417 17.1834 7.04167ZM10 11.2167C8.55002 11.2167 7.37502 10.0417 7.37502 8.59167C7.37502 7.14167 8.55002 5.96667 10 5.96667C11.45 5.96667 12.625 7.14167 12.625 8.59167C12.625 10.0417 11.45 11.2167 10 11.2167Z" fill="white"/>
</svg>
