<svg width="24" height="24" viewBox="0 0 24 24" fill="none" xmlns="http://www.w3.org/2000/svg">
<g clip-path="url(#clip0_6406_472)">
<path d="M12 24C18.6274 24 24 18.6274 24 12C24 5.37258 18.6274 0 12 0C5.37258 0 0 5.37258 0 12C0 18.6274 5.37258 24 12 24Z" fill="#03A9F4"/>
<path d="M19.7732 7.17902C19.1885 7.43438 18.57 7.60402 17.9368 7.68271C18.6043 7.28692 19.1032 6.65989 19.339 5.9206C18.7143 6.2914 18.0307 6.55253 17.3179 6.69271C16.8811 6.22558 16.3138 5.9007 15.6899 5.76032C15.066 5.61995 14.4142 5.67058 13.8195 5.90562C13.2247 6.14067 12.7144 6.54926 12.355 7.07824C11.9956 7.60723 11.8037 8.23212 11.8042 8.87165C11.802 9.11576 11.8269 9.35936 11.8784 9.59797C10.6105 9.53569 9.36995 9.20663 8.23784 8.63228C7.10574 8.05793 6.10753 7.25121 5.30842 6.26481C4.89768 6.96651 4.77042 7.79859 4.95267 8.59098C5.13492 9.38336 5.61291 10.0762 6.28895 10.528C5.78436 10.5144 5.29045 10.3795 4.84895 10.1348V10.1696C4.85037 10.9051 5.10496 11.6177 5.56992 12.1876C6.03487 12.7575 6.68186 13.15 7.40211 13.299C7.12954 13.3706 6.84866 13.4057 6.56685 13.4032C6.36393 13.407 6.16119 13.389 5.96211 13.3496C6.16846 13.9821 6.56573 14.5352 7.09927 14.9327C7.63282 15.3303 8.27643 15.5528 8.94158 15.5695C7.81441 16.4506 6.42486 16.9291 4.99421 16.929C4.73931 16.9312 4.48453 16.9164 4.23158 16.8848C5.69033 17.8253 7.39068 18.3223 9.12632 18.3153C14.9921 18.3153 18.199 13.4569 18.199 9.24587C18.199 9.10534 18.199 8.96955 18.1879 8.83376C18.8124 8.38303 19.3496 7.8223 19.7732 7.17902Z" fill="white"/>
</g>
<defs>
<clipPath id="clip0_6406_472">
<rect width="24" height="24" fill="white"/>
</clipPath>
</defs>
</svg>
