<svg width="24" height="24" viewBox="0 0 24 24" fill="none" xmlns="http://www.w3.org/2000/svg">
<g clip-path="url(#clip0_6406_460)">
<path d="M12 0C5.37269 0 0 5.37269 0 12C0 18.6273 5.37269 24 12 24C18.6273 24 24 18.6273 24 12C24 5.37269 18.6273 0 12 0ZM19.0208 14.514C18.4336 16.1383 17.5017 17.3186 16.2512 18.0229C14.7077 18.8924 13.4103 18.8526 13.0407 18.764C12.5438 18.6445 11.6 18.3278 11.2149 17.8981L10.7079 17.3329L10.5451 18.074C10.5415 18.09 10.1921 19.6763 9.927 20.3645C9.6649 21.0462 9.15022 22.0292 8.77579 22.4286C8.62662 22.5879 8.52736 22.6848 8.44356 22.7519L8.07211 23.0521C8.05428 23.0455 8.03586 23.0396 8.01803 23.033L7.87301 22.5207C7.82071 22.3353 7.78327 22.0809 7.76187 21.7636C7.69412 20.7455 7.93482 18.9934 8.12679 18.1721C8.3348 17.2847 9.20192 13.7414 9.20192 13.7414C9.20192 13.7414 8.54341 11.4609 9.25541 10.2729C9.78436 9.39032 10.3692 9.11337 10.9344 9.11337C12.2496 9.11337 12.4772 10.4821 12.2894 11.4223C12.1718 12.0095 11.9459 12.8647 11.7641 13.5512C11.5667 14.2983 11.4627 14.6959 11.4473 14.8623C11.3308 16.143 12.0345 16.6363 12.4642 16.8164C13.534 17.2651 15.1285 16.7338 15.9451 15.0685C16.7284 13.4715 16.9905 11.4318 16.8723 10.6331C16.8657 10.5873 16.6613 7.85162 14.1723 6.87098C11.5917 5.85409 9.61735 7.02788 9.40221 7.15982C8.83463 7.50929 7.45223 8.46971 6.88168 9.83963C6.56015 10.6105 6.41632 11.5465 6.50607 12.2817C6.60591 13.1001 7.0267 13.9274 7.37378 14.2887C7.55921 14.4819 7.50929 14.6204 7.4659 14.8569C7.42549 15.0768 7.29771 15.7181 7.14734 15.8685C6.99698 16.0188 6.73726 16.0111 6.6493 15.9766C6.40384 15.8542 5.56525 15.3876 5.07791 14.5431C4.46932 13.4876 4.33381 11.9215 4.69635 10.1332C5.11238 8.08043 6.89178 6.36581 8.46972 5.57714C10.4548 4.58521 12.5194 4.31895 14.2822 4.8271C16.5626 5.48442 18.0799 6.68971 18.9209 8.51251C19.8558 10.535 19.4926 13.21 19.0208 14.514Z" fill="#F44336"/>
</g>
<defs>
<clipPath id="clip0_6406_460">
<rect width="24" height="24" fill="white"/>
</clipPath>
</defs>
</svg>
